<mxfile host="65bd71144e">
    <diagram id="WlsF_-ElByJLTdb7nnw8" name="Page-1">
        <mxGraphModel dx="1261" dy="607" grid="0" gridSize="10" guides="1" tooltips="1" connect="1" arrows="1" fold="1" page="0" pageScale="1" pageWidth="850" pageHeight="1100" math="0" shadow="0">
            <root>
                <mxCell id="0"/>
                <mxCell id="1" parent="0"/>
                <mxCell id="5" value="topo = -1" style="text;html=1;strokeColor=none;fillColor=none;align=center;verticalAlign=middle;whiteSpace=wrap;rounded=0;" vertex="1" parent="1">
                    <mxGeometry x="38" y="336" width="60" height="30" as="geometry"/>
                </mxCell>
                <mxCell id="20" value="5" style="shape=cylinder3;whiteSpace=wrap;html=1;boundedLbl=1;backgroundOutline=1;size=15;" vertex="1" parent="1">
                    <mxGeometry x="125" y="279" width="60" height="57" as="geometry"/>
                </mxCell>
                <mxCell id="21" value="" style="shape=cylinder3;whiteSpace=wrap;html=1;boundedLbl=1;backgroundOutline=1;size=15;" vertex="1" parent="1">
                    <mxGeometry x="38" y="306" width="60" height="30" as="geometry"/>
                </mxCell>
                <mxCell id="24" value="topo = 0" style="text;html=1;strokeColor=none;fillColor=none;align=center;verticalAlign=middle;whiteSpace=wrap;rounded=0;" vertex="1" parent="1">
                    <mxGeometry x="125" y="336" width="60" height="30" as="geometry"/>
                </mxCell>
                <mxCell id="25" value="topo = 1" style="text;html=1;strokeColor=none;fillColor=none;align=center;verticalAlign=middle;whiteSpace=wrap;rounded=0;" vertex="1" parent="1">
                    <mxGeometry x="212" y="336" width="60" height="30" as="geometry"/>
                </mxCell>
                <mxCell id="29" value="topo = 2" style="text;html=1;strokeColor=none;fillColor=none;align=center;verticalAlign=middle;whiteSpace=wrap;rounded=0;" vertex="1" parent="1">
                    <mxGeometry x="299" y="336" width="60" height="30" as="geometry"/>
                </mxCell>
                <mxCell id="30" value="topo = 3" style="text;html=1;strokeColor=none;fillColor=none;align=center;verticalAlign=middle;whiteSpace=wrap;rounded=0;" vertex="1" parent="1">
                    <mxGeometry x="386" y="336" width="60" height="30" as="geometry"/>
                </mxCell>
                <mxCell id="31" value="5" style="shape=cylinder3;whiteSpace=wrap;html=1;boundedLbl=1;backgroundOutline=1;size=15;" vertex="1" parent="1">
                    <mxGeometry x="386" y="279" width="60" height="57" as="geometry"/>
                </mxCell>
                <mxCell id="32" value="8" style="shape=cylinder3;whiteSpace=wrap;html=1;boundedLbl=1;backgroundOutline=1;size=15;" vertex="1" parent="1">
                    <mxGeometry x="386" y="252" width="60" height="57" as="geometry"/>
                </mxCell>
                <mxCell id="33" value="4" style="shape=cylinder3;whiteSpace=wrap;html=1;boundedLbl=1;backgroundOutline=1;size=15;" vertex="1" parent="1">
                    <mxGeometry x="386" y="225" width="60" height="57" as="geometry"/>
                </mxCell>
                <mxCell id="34" value="7" style="shape=cylinder3;whiteSpace=wrap;html=1;boundedLbl=1;backgroundOutline=1;size=15;" vertex="1" parent="1">
                    <mxGeometry x="386" y="198" width="60" height="57" as="geometry"/>
                </mxCell>
                <mxCell id="35" value="5" style="shape=cylinder3;whiteSpace=wrap;html=1;boundedLbl=1;backgroundOutline=1;size=15;" vertex="1" parent="1">
                    <mxGeometry x="212" y="279" width="60" height="57" as="geometry"/>
                </mxCell>
                <mxCell id="36" value="8" style="shape=cylinder3;whiteSpace=wrap;html=1;boundedLbl=1;backgroundOutline=1;size=15;" vertex="1" parent="1">
                    <mxGeometry x="212" y="252" width="60" height="57" as="geometry"/>
                </mxCell>
                <mxCell id="39" value="5" style="shape=cylinder3;whiteSpace=wrap;html=1;boundedLbl=1;backgroundOutline=1;size=15;" vertex="1" parent="1">
                    <mxGeometry x="299" y="279" width="60" height="57" as="geometry"/>
                </mxCell>
                <mxCell id="40" value="8" style="shape=cylinder3;whiteSpace=wrap;html=1;boundedLbl=1;backgroundOutline=1;size=15;" vertex="1" parent="1">
                    <mxGeometry x="299" y="252" width="60" height="57" as="geometry"/>
                </mxCell>
                <mxCell id="41" value="4" style="shape=cylinder3;whiteSpace=wrap;html=1;boundedLbl=1;backgroundOutline=1;size=15;" vertex="1" parent="1">
                    <mxGeometry x="299" y="225" width="60" height="57" as="geometry"/>
                </mxCell>
                <mxCell id="44" value="ElementoTopo();&lt;br&gt;null" style="text;html=1;strokeColor=none;fillColor=none;align=center;verticalAlign=middle;whiteSpace=wrap;rounded=0;rotation=-55;" vertex="1" parent="1">
                    <mxGeometry x="38" y="255" width="60" height="30" as="geometry"/>
                </mxCell>
                <mxCell id="50" value="topo = 3" style="text;html=1;strokeColor=none;fillColor=none;align=center;verticalAlign=middle;whiteSpace=wrap;rounded=0;" vertex="1" parent="1">
                    <mxGeometry x="473" y="336" width="60" height="30" as="geometry"/>
                </mxCell>
                <mxCell id="51" value="Empilhar(5);" style="text;html=1;strokeColor=none;fillColor=none;align=center;verticalAlign=middle;whiteSpace=wrap;rounded=0;rotation=-55;" vertex="1" parent="1">
                    <mxGeometry x="125" y="229" width="60" height="30" as="geometry"/>
                </mxCell>
                <mxCell id="52" value="Empilhar(8);" style="text;html=1;strokeColor=none;fillColor=none;align=center;verticalAlign=middle;whiteSpace=wrap;rounded=0;rotation=-55;" vertex="1" parent="1">
                    <mxGeometry x="212" y="204" width="60" height="30" as="geometry"/>
                </mxCell>
                <mxCell id="53" value="Empilhar(4);" style="text;html=1;strokeColor=none;fillColor=none;align=center;verticalAlign=middle;whiteSpace=wrap;rounded=0;rotation=-55;" vertex="1" parent="1">
                    <mxGeometry x="299" y="177" width="60" height="30" as="geometry"/>
                </mxCell>
                <mxCell id="54" value="Empilhar(7);" style="text;html=1;strokeColor=none;fillColor=none;align=center;verticalAlign=middle;whiteSpace=wrap;rounded=0;rotation=-55;" vertex="1" parent="1">
                    <mxGeometry x="386" y="149" width="60" height="30" as="geometry"/>
                </mxCell>
                <mxCell id="55" value="5" style="shape=cylinder3;whiteSpace=wrap;html=1;boundedLbl=1;backgroundOutline=1;size=15;" vertex="1" parent="1">
                    <mxGeometry x="473" y="279" width="60" height="57" as="geometry"/>
                </mxCell>
                <mxCell id="56" value="8" style="shape=cylinder3;whiteSpace=wrap;html=1;boundedLbl=1;backgroundOutline=1;size=15;" vertex="1" parent="1">
                    <mxGeometry x="473" y="252" width="60" height="57" as="geometry"/>
                </mxCell>
                <mxCell id="57" value="4" style="shape=cylinder3;whiteSpace=wrap;html=1;boundedLbl=1;backgroundOutline=1;size=15;" vertex="1" parent="1">
                    <mxGeometry x="473" y="225" width="60" height="57" as="geometry"/>
                </mxCell>
                <mxCell id="58" value="7" style="shape=cylinder3;whiteSpace=wrap;html=1;boundedLbl=1;backgroundOutline=1;size=15;" vertex="1" parent="1">
                    <mxGeometry x="473" y="198" width="60" height="57" as="geometry"/>
                </mxCell>
                <mxCell id="59" value="Mostrar();" style="text;html=1;strokeColor=none;fillColor=none;align=center;verticalAlign=middle;whiteSpace=wrap;rounded=0;rotation=-55;" vertex="1" parent="1">
                    <mxGeometry x="473" y="149" width="60" height="30" as="geometry"/>
                </mxCell>
                <mxCell id="60" value="topo = 2" style="text;html=1;strokeColor=none;fillColor=none;align=center;verticalAlign=middle;whiteSpace=wrap;rounded=0;" vertex="1" parent="1">
                    <mxGeometry x="560" y="336" width="60" height="30" as="geometry"/>
                </mxCell>
                <mxCell id="61" value="topo = 1" style="text;html=1;strokeColor=none;fillColor=none;align=center;verticalAlign=middle;whiteSpace=wrap;rounded=0;" vertex="1" parent="1">
                    <mxGeometry x="647" y="336" width="60" height="30" as="geometry"/>
                </mxCell>
                <mxCell id="62" value="topo = 1" style="text;html=1;strokeColor=none;fillColor=none;align=center;verticalAlign=middle;whiteSpace=wrap;rounded=0;" vertex="1" parent="1">
                    <mxGeometry x="734" y="336" width="60" height="30" as="geometry"/>
                </mxCell>
                <mxCell id="63" value="topo = 0" style="text;html=1;strokeColor=none;fillColor=none;align=center;verticalAlign=middle;whiteSpace=wrap;rounded=0;" vertex="1" parent="1">
                    <mxGeometry x="821" y="336" width="60" height="30" as="geometry"/>
                </mxCell>
                <mxCell id="64" value="5" style="shape=cylinder3;whiteSpace=wrap;html=1;boundedLbl=1;backgroundOutline=1;size=15;" vertex="1" parent="1">
                    <mxGeometry x="560" y="279" width="60" height="57" as="geometry"/>
                </mxCell>
                <mxCell id="65" value="8" style="shape=cylinder3;whiteSpace=wrap;html=1;boundedLbl=1;backgroundOutline=1;size=15;" vertex="1" parent="1">
                    <mxGeometry x="560" y="252" width="60" height="57" as="geometry"/>
                </mxCell>
                <mxCell id="66" value="4" style="shape=cylinder3;whiteSpace=wrap;html=1;boundedLbl=1;backgroundOutline=1;size=15;" vertex="1" parent="1">
                    <mxGeometry x="560" y="225" width="60" height="57" as="geometry"/>
                </mxCell>
                <mxCell id="67" value="Desenpilhar();" style="text;html=1;strokeColor=none;fillColor=none;align=center;verticalAlign=middle;whiteSpace=wrap;rounded=0;rotation=-55;" vertex="1" parent="1">
                    <mxGeometry x="560" y="177" width="60" height="30" as="geometry"/>
                </mxCell>
                <mxCell id="68" value="5" style="shape=cylinder3;whiteSpace=wrap;html=1;boundedLbl=1;backgroundOutline=1;size=15;" vertex="1" parent="1">
                    <mxGeometry x="647" y="279" width="60" height="57" as="geometry"/>
                </mxCell>
                <mxCell id="69" value="8" style="shape=cylinder3;whiteSpace=wrap;html=1;boundedLbl=1;backgroundOutline=1;size=15;" vertex="1" parent="1">
                    <mxGeometry x="647" y="252" width="60" height="57" as="geometry"/>
                </mxCell>
                <mxCell id="71" value="Desenpilhar();&lt;br&gt;" style="text;html=1;strokeColor=none;fillColor=none;align=center;verticalAlign=middle;whiteSpace=wrap;rounded=0;rotation=-55;" vertex="1" parent="1">
                    <mxGeometry x="647" y="204" width="60" height="30" as="geometry"/>
                </mxCell>
                <mxCell id="72" value="topo = -1" style="text;html=1;strokeColor=none;fillColor=none;align=center;verticalAlign=middle;whiteSpace=wrap;rounded=0;" vertex="1" parent="1">
                    <mxGeometry x="908" y="332" width="60" height="30" as="geometry"/>
                </mxCell>
                <mxCell id="74" value="5" style="shape=cylinder3;whiteSpace=wrap;html=1;boundedLbl=1;backgroundOutline=1;size=15;" vertex="1" parent="1">
                    <mxGeometry x="734" y="279" width="60" height="57" as="geometry"/>
                </mxCell>
                <mxCell id="75" value="8" style="shape=cylinder3;whiteSpace=wrap;html=1;boundedLbl=1;backgroundOutline=1;size=15;" vertex="1" parent="1">
                    <mxGeometry x="734" y="252" width="60" height="57" as="geometry"/>
                </mxCell>
                <mxCell id="76" value="ElementoTopo();&lt;br&gt;8" style="text;html=1;strokeColor=none;fillColor=none;align=center;verticalAlign=middle;whiteSpace=wrap;rounded=0;rotation=-55;" vertex="1" parent="1">
                    <mxGeometry x="734" y="204" width="60" height="30" as="geometry"/>
                </mxCell>
                <mxCell id="77" value="5" style="shape=cylinder3;whiteSpace=wrap;html=1;boundedLbl=1;backgroundOutline=1;size=15;" vertex="1" parent="1">
                    <mxGeometry x="821" y="277" width="60" height="59" as="geometry"/>
                </mxCell>
                <mxCell id="79" value="Desenpilhar();&lt;br&gt;" style="text;html=1;strokeColor=none;fillColor=none;align=center;verticalAlign=middle;whiteSpace=wrap;rounded=0;rotation=-55;" vertex="1" parent="1">
                    <mxGeometry x="821" y="229" width="60" height="30" as="geometry"/>
                </mxCell>
                <mxCell id="83" value="" style="shape=cylinder3;whiteSpace=wrap;html=1;boundedLbl=1;backgroundOutline=1;size=15;" vertex="1" parent="1">
                    <mxGeometry x="908" y="302" width="60" height="30" as="geometry"/>
                </mxCell>
                <mxCell id="84" value="Desenpilhar();&lt;br&gt;" style="text;html=1;strokeColor=none;fillColor=none;align=center;verticalAlign=middle;whiteSpace=wrap;rounded=0;rotation=-55;" vertex="1" parent="1">
                    <mxGeometry x="908" y="252" width="60" height="30" as="geometry"/>
                </mxCell>
            </root>
        </mxGraphModel>
    </diagram>
</mxfile>
